<mxfile host="Electron" agent="Mozilla/5.0 (Windows NT 10.0; Win64; x64) AppleWebKit/537.36 (KHTML, like Gecko) draw.io/24.7.17 Chrome/128.0.6613.36 Electron/32.0.1 Safari/537.36" version="24.7.17">
  <diagram name="PÃ¡gina-1" id="9ZottxFkVf4k_-NcHgbM">
    <mxGraphModel dx="352" dy="213" grid="1" gridSize="10" guides="1" tooltips="1" connect="1" arrows="1" fold="1" page="1" pageScale="1" pageWidth="827" pageHeight="1169" math="0" shadow="0">
      <root>
        <mxCell id="0" />
        <mxCell id="1" parent="0" />
        <mxCell id="UIj2MaULoUiLmwatY3r4-3" value="" style="edgeStyle=orthogonalEdgeStyle;rounded=0;orthogonalLoop=1;jettySize=auto;html=1;" edge="1" parent="1" target="UIj2MaULoUiLmwatY3r4-2">
          <mxGeometry relative="1" as="geometry">
            <mxPoint x="335" y="380" as="sourcePoint" />
          </mxGeometry>
        </mxCell>
        <mxCell id="UIj2MaULoUiLmwatY3r4-7" value="" style="edgeStyle=orthogonalEdgeStyle;rounded=0;orthogonalLoop=1;jettySize=auto;html=1;" edge="1" parent="1" target="UIj2MaULoUiLmwatY3r4-2">
          <mxGeometry relative="1" as="geometry">
            <mxPoint x="335" y="380" as="sourcePoint" />
          </mxGeometry>
        </mxCell>
        <mxCell id="UIj2MaULoUiLmwatY3r4-9" value="" style="edgeStyle=orthogonalEdgeStyle;rounded=0;orthogonalLoop=1;jettySize=auto;html=1;" edge="1" parent="1" source="UIj2MaULoUiLmwatY3r4-1" target="UIj2MaULoUiLmwatY3r4-8">
          <mxGeometry relative="1" as="geometry" />
        </mxCell>
        <mxCell id="UIj2MaULoUiLmwatY3r4-16" value="" style="edgeStyle=orthogonalEdgeStyle;rounded=0;orthogonalLoop=1;jettySize=auto;html=1;" edge="1" parent="1" source="UIj2MaULoUiLmwatY3r4-1" target="UIj2MaULoUiLmwatY3r4-15">
          <mxGeometry relative="1" as="geometry" />
        </mxCell>
        <mxCell id="UIj2MaULoUiLmwatY3r4-57" style="edgeStyle=orthogonalEdgeStyle;rounded=0;orthogonalLoop=1;jettySize=auto;html=1;" edge="1" parent="1" source="UIj2MaULoUiLmwatY3r4-1" target="UIj2MaULoUiLmwatY3r4-55">
          <mxGeometry relative="1" as="geometry">
            <Array as="points">
              <mxPoint x="440" y="310" />
              <mxPoint x="550" y="310" />
              <mxPoint x="550" y="245" />
            </Array>
          </mxGeometry>
        </mxCell>
        <mxCell id="UIj2MaULoUiLmwatY3r4-74" style="edgeStyle=orthogonalEdgeStyle;rounded=0;orthogonalLoop=1;jettySize=auto;html=1;endArrow=oval;endFill=1;" edge="1" parent="1" source="UIj2MaULoUiLmwatY3r4-1">
          <mxGeometry relative="1" as="geometry">
            <mxPoint x="229.33333333333337" y="218" as="targetPoint" />
          </mxGeometry>
        </mxCell>
        <mxCell id="UIj2MaULoUiLmwatY3r4-1" value="Usuario" style="rounded=0;whiteSpace=wrap;html=1;" vertex="1" parent="1">
          <mxGeometry x="321" y="320" width="120" height="60" as="geometry" />
        </mxCell>
        <mxCell id="UIj2MaULoUiLmwatY3r4-5" value="" style="edgeStyle=orthogonalEdgeStyle;rounded=0;orthogonalLoop=1;jettySize=auto;html=1;" edge="1" parent="1" source="UIj2MaULoUiLmwatY3r4-2">
          <mxGeometry relative="1" as="geometry">
            <mxPoint x="334.0588235294117" y="595" as="targetPoint" />
          </mxGeometry>
        </mxCell>
        <mxCell id="UIj2MaULoUiLmwatY3r4-2" value="sube" style="rhombus;whiteSpace=wrap;html=1;rounded=0;" vertex="1" parent="1">
          <mxGeometry x="290" y="470" width="50" height="50" as="geometry" />
        </mxCell>
        <mxCell id="UIj2MaULoUiLmwatY3r4-13" value="" style="edgeStyle=orthogonalEdgeStyle;rounded=0;orthogonalLoop=1;jettySize=auto;html=1;" edge="1" parent="1" source="UIj2MaULoUiLmwatY3r4-4" target="UIj2MaULoUiLmwatY3r4-12">
          <mxGeometry relative="1" as="geometry" />
        </mxCell>
        <mxCell id="UIj2MaULoUiLmwatY3r4-23" value="" style="edgeStyle=orthogonalEdgeStyle;rounded=0;orthogonalLoop=1;jettySize=auto;html=1;" edge="1" parent="1" source="UIj2MaULoUiLmwatY3r4-4" target="UIj2MaULoUiLmwatY3r4-22">
          <mxGeometry relative="1" as="geometry" />
        </mxCell>
        <mxCell id="UIj2MaULoUiLmwatY3r4-75" style="edgeStyle=orthogonalEdgeStyle;rounded=0;orthogonalLoop=1;jettySize=auto;html=1;endArrow=oval;endFill=0;" edge="1" parent="1">
          <mxGeometry relative="1" as="geometry">
            <mxPoint x="330" y="670" as="targetPoint" />
            <mxPoint x="330" y="655" as="sourcePoint" />
            <Array as="points">
              <mxPoint x="330" y="670" />
            </Array>
          </mxGeometry>
        </mxCell>
        <mxCell id="UIj2MaULoUiLmwatY3r4-4" value="Imagen" style="whiteSpace=wrap;html=1;rounded=0;" vertex="1" parent="1">
          <mxGeometry x="320" y="595" width="120" height="60" as="geometry" />
        </mxCell>
        <mxCell id="UIj2MaULoUiLmwatY3r4-11" value="" style="edgeStyle=orthogonalEdgeStyle;rounded=0;orthogonalLoop=1;jettySize=auto;html=1;" edge="1" parent="1" source="UIj2MaULoUiLmwatY3r4-8" target="UIj2MaULoUiLmwatY3r4-10">
          <mxGeometry relative="1" as="geometry" />
        </mxCell>
        <mxCell id="UIj2MaULoUiLmwatY3r4-8" value="realiza" style="rhombus;whiteSpace=wrap;html=1;rounded=0;" vertex="1" parent="1">
          <mxGeometry x="611" y="320" width="60" height="60" as="geometry" />
        </mxCell>
        <mxCell id="UIj2MaULoUiLmwatY3r4-35" value="" style="edgeStyle=orthogonalEdgeStyle;rounded=0;orthogonalLoop=1;jettySize=auto;html=1;" edge="1" parent="1" source="UIj2MaULoUiLmwatY3r4-10" target="UIj2MaULoUiLmwatY3r4-34">
          <mxGeometry relative="1" as="geometry">
            <Array as="points">
              <mxPoint x="730" y="500" />
              <mxPoint x="730" y="500" />
            </Array>
          </mxGeometry>
        </mxCell>
        <mxCell id="UIj2MaULoUiLmwatY3r4-10" value="Comentario" style="whiteSpace=wrap;html=1;rounded=0;" vertex="1" parent="1">
          <mxGeometry x="581" y="450" width="120" height="60" as="geometry" />
        </mxCell>
        <mxCell id="UIj2MaULoUiLmwatY3r4-14" style="edgeStyle=orthogonalEdgeStyle;rounded=0;orthogonalLoop=1;jettySize=auto;html=1;" edge="1" parent="1" source="UIj2MaULoUiLmwatY3r4-12" target="UIj2MaULoUiLmwatY3r4-10">
          <mxGeometry relative="1" as="geometry" />
        </mxCell>
        <mxCell id="UIj2MaULoUiLmwatY3r4-12" value="tiene" style="rhombus;whiteSpace=wrap;html=1;rounded=0;" vertex="1" parent="1">
          <mxGeometry x="611" y="597.5" width="60" height="55" as="geometry" />
        </mxCell>
        <mxCell id="UIj2MaULoUiLmwatY3r4-18" value="" style="edgeStyle=orthogonalEdgeStyle;rounded=0;orthogonalLoop=1;jettySize=auto;html=1;" edge="1" parent="1" source="UIj2MaULoUiLmwatY3r4-15" target="UIj2MaULoUiLmwatY3r4-17">
          <mxGeometry relative="1" as="geometry" />
        </mxCell>
        <mxCell id="UIj2MaULoUiLmwatY3r4-15" value="realiza" style="rhombus;whiteSpace=wrap;html=1;rounded=0;" vertex="1" parent="1">
          <mxGeometry x="120" y="310" width="80" height="80" as="geometry" />
        </mxCell>
        <mxCell id="UIj2MaULoUiLmwatY3r4-20" value="" style="edgeStyle=orthogonalEdgeStyle;rounded=0;orthogonalLoop=1;jettySize=auto;html=1;" edge="1" parent="1" source="UIj2MaULoUiLmwatY3r4-17" target="UIj2MaULoUiLmwatY3r4-19">
          <mxGeometry relative="1" as="geometry" />
        </mxCell>
        <mxCell id="UIj2MaULoUiLmwatY3r4-63" value="" style="edgeStyle=orthogonalEdgeStyle;rounded=0;orthogonalLoop=1;jettySize=auto;html=1;" edge="1" parent="1" source="UIj2MaULoUiLmwatY3r4-17" target="UIj2MaULoUiLmwatY3r4-62">
          <mxGeometry relative="1" as="geometry" />
        </mxCell>
        <mxCell id="UIj2MaULoUiLmwatY3r4-17" value="Vinculo" style="whiteSpace=wrap;html=1;rounded=0;" vertex="1" parent="1">
          <mxGeometry x="100" y="180" width="120" height="60" as="geometry" />
        </mxCell>
        <mxCell id="UIj2MaULoUiLmwatY3r4-21" style="edgeStyle=orthogonalEdgeStyle;rounded=0;orthogonalLoop=1;jettySize=auto;html=1;" edge="1" parent="1" source="UIj2MaULoUiLmwatY3r4-19" target="UIj2MaULoUiLmwatY3r4-1">
          <mxGeometry relative="1" as="geometry" />
        </mxCell>
        <mxCell id="UIj2MaULoUiLmwatY3r4-19" value="vincula" style="rhombus;whiteSpace=wrap;html=1;rounded=0;" vertex="1" parent="1">
          <mxGeometry x="341" y="170" width="80" height="80" as="geometry" />
        </mxCell>
        <mxCell id="UIj2MaULoUiLmwatY3r4-25" value="" style="edgeStyle=orthogonalEdgeStyle;rounded=0;orthogonalLoop=1;jettySize=auto;html=1;" edge="1" parent="1" source="UIj2MaULoUiLmwatY3r4-22" target="UIj2MaULoUiLmwatY3r4-24">
          <mxGeometry relative="1" as="geometry" />
        </mxCell>
        <mxCell id="UIj2MaULoUiLmwatY3r4-22" value="tiene2" style="rhombus;whiteSpace=wrap;html=1;rounded=0;" vertex="1" parent="1">
          <mxGeometry x="140" y="585" width="80" height="80" as="geometry" />
        </mxCell>
        <mxCell id="UIj2MaULoUiLmwatY3r4-24" value="Tematica" style="whiteSpace=wrap;html=1;rounded=0;" vertex="1" parent="1">
          <mxGeometry x="120" y="450" width="120" height="60" as="geometry" />
        </mxCell>
        <mxCell id="UIj2MaULoUiLmwatY3r4-26" value="" style="edgeStyle=orthogonalEdgeStyle;rounded=0;orthogonalLoop=1;jettySize=auto;html=1;" edge="1" parent="1" target="UIj2MaULoUiLmwatY3r4-29">
          <mxGeometry relative="1" as="geometry">
            <mxPoint x="389" y="380" as="sourcePoint" />
          </mxGeometry>
        </mxCell>
        <mxCell id="UIj2MaULoUiLmwatY3r4-27" value="" style="edgeStyle=orthogonalEdgeStyle;rounded=0;orthogonalLoop=1;jettySize=auto;html=1;" edge="1" parent="1" target="UIj2MaULoUiLmwatY3r4-29">
          <mxGeometry relative="1" as="geometry">
            <mxPoint x="389" y="380" as="sourcePoint" />
          </mxGeometry>
        </mxCell>
        <mxCell id="UIj2MaULoUiLmwatY3r4-28" value="" style="edgeStyle=orthogonalEdgeStyle;rounded=0;orthogonalLoop=1;jettySize=auto;html=1;" edge="1" parent="1" source="UIj2MaULoUiLmwatY3r4-29">
          <mxGeometry relative="1" as="geometry">
            <mxPoint x="388.0588235294117" y="595" as="targetPoint" />
          </mxGeometry>
        </mxCell>
        <mxCell id="UIj2MaULoUiLmwatY3r4-29" value="&lt;font style=&quot;font-size: 9px;&quot;&gt;descarga&lt;/font&gt;" style="rhombus;whiteSpace=wrap;html=1;rounded=0;" vertex="1" parent="1">
          <mxGeometry x="364" y="470" width="50" height="50" as="geometry" />
        </mxCell>
        <mxCell id="UIj2MaULoUiLmwatY3r4-30" value="" style="edgeStyle=orthogonalEdgeStyle;rounded=0;orthogonalLoop=1;jettySize=auto;html=1;" edge="1" parent="1" target="UIj2MaULoUiLmwatY3r4-33">
          <mxGeometry relative="1" as="geometry">
            <mxPoint x="439" y="380" as="sourcePoint" />
          </mxGeometry>
        </mxCell>
        <mxCell id="UIj2MaULoUiLmwatY3r4-31" value="" style="edgeStyle=orthogonalEdgeStyle;rounded=0;orthogonalLoop=1;jettySize=auto;html=1;" edge="1" parent="1" target="UIj2MaULoUiLmwatY3r4-33">
          <mxGeometry relative="1" as="geometry">
            <mxPoint x="439" y="380" as="sourcePoint" />
          </mxGeometry>
        </mxCell>
        <mxCell id="UIj2MaULoUiLmwatY3r4-32" value="" style="edgeStyle=orthogonalEdgeStyle;rounded=0;orthogonalLoop=1;jettySize=auto;html=1;" edge="1" parent="1" source="UIj2MaULoUiLmwatY3r4-33">
          <mxGeometry relative="1" as="geometry">
            <mxPoint x="438.0588235294117" y="595" as="targetPoint" />
          </mxGeometry>
        </mxCell>
        <mxCell id="UIj2MaULoUiLmwatY3r4-33" value="&lt;font style=&quot;font-size: 9px;&quot;&gt;comparte&lt;/font&gt;" style="rhombus;whiteSpace=wrap;html=1;rounded=0;" vertex="1" parent="1">
          <mxGeometry x="430" y="470" width="50" height="50" as="geometry" />
        </mxCell>
        <mxCell id="UIj2MaULoUiLmwatY3r4-34" value="tiene3" style="rhombus;whiteSpace=wrap;html=1;rounded=0;" vertex="1" parent="1">
          <mxGeometry x="760" y="455" width="50" height="50" as="geometry" />
        </mxCell>
        <mxCell id="UIj2MaULoUiLmwatY3r4-36" value="" style="edgeStyle=orthogonalEdgeStyle;rounded=0;orthogonalLoop=1;jettySize=auto;html=1;endArrow=none;endFill=0;startArrow=classic;startFill=1;" edge="1" parent="1">
          <mxGeometry relative="1" as="geometry">
            <mxPoint x="701" y="460" as="sourcePoint" />
            <mxPoint x="780" y="460" as="targetPoint" />
            <Array as="points">
              <mxPoint x="730" y="460" />
              <mxPoint x="730" y="460" />
            </Array>
          </mxGeometry>
        </mxCell>
        <mxCell id="UIj2MaULoUiLmwatY3r4-37" value="(1,N)" style="text;html=1;align=center;verticalAlign=middle;resizable=0;points=[];autosize=1;strokeColor=none;fillColor=none;" vertex="1" parent="1">
          <mxGeometry x="278" y="323" width="50" height="30" as="geometry" />
        </mxCell>
        <mxCell id="UIj2MaULoUiLmwatY3r4-38" value="(1,N)" style="text;html=1;align=center;verticalAlign=middle;resizable=0;points=[];autosize=1;strokeColor=none;fillColor=none;" vertex="1" parent="1">
          <mxGeometry x="165" y="248" width="50" height="30" as="geometry" />
        </mxCell>
        <mxCell id="UIj2MaULoUiLmwatY3r4-39" value="(1,1)" style="text;html=1;align=center;verticalAlign=middle;resizable=0;points=[];autosize=1;strokeColor=none;fillColor=none;" vertex="1" parent="1">
          <mxGeometry x="240" y="180" width="50" height="30" as="geometry" />
        </mxCell>
        <mxCell id="UIj2MaULoUiLmwatY3r4-40" value="(1,N)" style="text;html=1;align=center;verticalAlign=middle;resizable=0;points=[];autosize=1;strokeColor=none;fillColor=none;" vertex="1" parent="1">
          <mxGeometry x="325" y="288" width="50" height="30" as="geometry" />
        </mxCell>
        <mxCell id="UIj2MaULoUiLmwatY3r4-95" style="edgeStyle=orthogonalEdgeStyle;rounded=0;orthogonalLoop=1;jettySize=auto;html=1;curved=1;endArrow=oval;endFill=1;" edge="1" parent="1">
          <mxGeometry relative="1" as="geometry">
            <mxPoint x="306.71428571428567" y="620.3333333333333" as="targetPoint" />
            <mxPoint x="335" y="400" as="sourcePoint" />
            <Array as="points">
              <mxPoint x="340" y="400" />
              <mxPoint x="280" y="401" />
              <mxPoint x="280" y="590" />
              <mxPoint x="307" y="590" />
            </Array>
          </mxGeometry>
        </mxCell>
        <mxCell id="UIj2MaULoUiLmwatY3r4-41" value="(1,N)" style="text;html=1;align=center;verticalAlign=middle;resizable=0;points=[];autosize=1;strokeColor=none;fillColor=none;" vertex="1" parent="1">
          <mxGeometry x="275" y="360" width="50" height="30" as="geometry" />
        </mxCell>
        <mxCell id="UIj2MaULoUiLmwatY3r4-42" value="(1,N)" style="text;html=1;align=center;verticalAlign=middle;resizable=0;points=[];autosize=1;strokeColor=none;fillColor=none;" vertex="1" parent="1">
          <mxGeometry x="341" y="380" width="50" height="30" as="geometry" />
        </mxCell>
        <mxCell id="UIj2MaULoUiLmwatY3r4-43" value="(1,N)" style="text;html=1;align=center;verticalAlign=middle;resizable=0;points=[];autosize=1;strokeColor=none;fillColor=none;" vertex="1" parent="1">
          <mxGeometry x="430" y="378" width="50" height="30" as="geometry" />
        </mxCell>
        <mxCell id="UIj2MaULoUiLmwatY3r4-44" value="(1,N)" style="text;html=1;align=center;verticalAlign=middle;resizable=0;points=[];autosize=1;strokeColor=none;fillColor=none;" vertex="1" parent="1">
          <mxGeometry x="290" y="558" width="50" height="30" as="geometry" />
        </mxCell>
        <mxCell id="UIj2MaULoUiLmwatY3r4-45" value="(1,N)" style="text;html=1;align=center;verticalAlign=middle;resizable=0;points=[];autosize=1;strokeColor=none;fillColor=none;" vertex="1" parent="1">
          <mxGeometry x="341" y="558" width="50" height="30" as="geometry" />
        </mxCell>
        <mxCell id="UIj2MaULoUiLmwatY3r4-46" value="(1,N)" style="text;html=1;align=center;verticalAlign=middle;resizable=0;points=[];autosize=1;strokeColor=none;fillColor=none;" vertex="1" parent="1">
          <mxGeometry x="430" y="558" width="50" height="30" as="geometry" />
        </mxCell>
        <mxCell id="UIj2MaULoUiLmwatY3r4-47" value="(1,N)" style="text;html=1;align=center;verticalAlign=middle;resizable=0;points=[];autosize=1;strokeColor=none;fillColor=none;" vertex="1" parent="1">
          <mxGeometry x="435" y="318" width="50" height="30" as="geometry" />
        </mxCell>
        <mxCell id="UIj2MaULoUiLmwatY3r4-48" value="(1,1)" style="text;html=1;align=center;verticalAlign=middle;resizable=0;points=[];autosize=1;strokeColor=none;fillColor=none;" vertex="1" parent="1">
          <mxGeometry x="600" y="408" width="50" height="30" as="geometry" />
        </mxCell>
        <mxCell id="UIj2MaULoUiLmwatY3r4-49" value="(1,N)" style="text;html=1;align=center;verticalAlign=middle;resizable=0;points=[];autosize=1;strokeColor=none;fillColor=none;" vertex="1" parent="1">
          <mxGeometry x="695" y="498" width="50" height="30" as="geometry" />
        </mxCell>
        <mxCell id="UIj2MaULoUiLmwatY3r4-50" value="(1,1)" style="text;html=1;align=center;verticalAlign=middle;resizable=0;points=[];autosize=1;strokeColor=none;fillColor=none;" vertex="1" parent="1">
          <mxGeometry x="695" y="428" width="50" height="30" as="geometry" />
        </mxCell>
        <mxCell id="UIj2MaULoUiLmwatY3r4-51" value="(1,N)" style="text;html=1;align=center;verticalAlign=middle;resizable=0;points=[];autosize=1;strokeColor=none;fillColor=none;" vertex="1" parent="1">
          <mxGeometry x="435" y="622.5" width="50" height="30" as="geometry" />
        </mxCell>
        <mxCell id="UIj2MaULoUiLmwatY3r4-52" value="(1,1)" style="text;html=1;align=center;verticalAlign=middle;resizable=0;points=[];autosize=1;strokeColor=none;fillColor=none;" vertex="1" parent="1">
          <mxGeometry x="640" y="510" width="50" height="30" as="geometry" />
        </mxCell>
        <mxCell id="UIj2MaULoUiLmwatY3r4-53" value="(1,1)" style="text;html=1;align=center;verticalAlign=middle;resizable=0;points=[];autosize=1;strokeColor=none;fillColor=none;" vertex="1" parent="1">
          <mxGeometry x="255" y="628" width="50" height="30" as="geometry" />
        </mxCell>
        <mxCell id="UIj2MaULoUiLmwatY3r4-54" value="(1,N)" style="text;html=1;align=center;verticalAlign=middle;resizable=0;points=[];autosize=1;strokeColor=none;fillColor=none;" vertex="1" parent="1">
          <mxGeometry x="130" y="510" width="50" height="30" as="geometry" />
        </mxCell>
        <mxCell id="UIj2MaULoUiLmwatY3r4-55" value="Direccion" style="ellipse;whiteSpace=wrap;html=1;" vertex="1" parent="1">
          <mxGeometry x="580" y="220" width="70" height="50" as="geometry" />
        </mxCell>
        <mxCell id="UIj2MaULoUiLmwatY3r4-56" value="NÂ° o&lt;div&gt;Calle o&lt;/div&gt;&lt;div&gt;Piso (0,1) o&lt;/div&gt;&lt;div&gt;Depto (0,1) o&lt;/div&gt;" style="text;html=1;align=right;verticalAlign=middle;resizable=0;points=[];autosize=1;strokeColor=none;fillColor=none;rotation=60;" vertex="1" parent="1">
          <mxGeometry x="521" y="138" width="90" height="70" as="geometry" />
        </mxCell>
        <mxCell id="UIj2MaULoUiLmwatY3r4-58" value="" style="shape=waypoint;sketch=0;size=6;pointerEvents=1;points=[];fillColor=none;resizable=0;rotatable=0;perimeter=centerPerimeter;snapToPoint=1;" vertex="1" parent="1">
          <mxGeometry x="400" y="290" width="20" height="20" as="geometry" />
        </mxCell>
        <mxCell id="UIj2MaULoUiLmwatY3r4-59" style="edgeStyle=orthogonalEdgeStyle;rounded=0;orthogonalLoop=1;jettySize=auto;html=1;entryX=0.75;entryY=0;entryDx=0;entryDy=0;endArrow=none;endFill=0;" edge="1" source="UIj2MaULoUiLmwatY3r4-58" parent="1" target="UIj2MaULoUiLmwatY3r4-1">
          <mxGeometry relative="1" as="geometry">
            <mxPoint x="430" y="299" as="targetPoint" />
          </mxGeometry>
        </mxCell>
        <mxCell id="UIj2MaULoUiLmwatY3r4-60" value="user" style="text;html=1;align=center;verticalAlign=middle;resizable=0;points=[];autosize=1;strokeColor=none;fillColor=none;" vertex="1" parent="1">
          <mxGeometry x="386" y="273" width="50" height="30" as="geometry" />
        </mxCell>
        <mxCell id="UIj2MaULoUiLmwatY3r4-90" style="edgeStyle=orthogonalEdgeStyle;rounded=0;orthogonalLoop=1;jettySize=auto;html=1;endArrow=oval;endFill=1;curved=1;" edge="1" parent="1">
          <mxGeometry relative="1" as="geometry">
            <mxPoint x="574.8888888888889" y="514.7777777777778" as="targetPoint" />
            <mxPoint x="540" y="350" as="sourcePoint" />
          </mxGeometry>
        </mxCell>
        <mxCell id="UIj2MaULoUiLmwatY3r4-61" value="&lt;h5 style=&quot;font-size: 7px;&quot;&gt;&lt;span style=&quot;font-weight: normal;&quot;&gt;o nom/ap&lt;br&gt;o correo (1,N)&lt;br&gt;o clave&lt;br&gt;o telefono&lt;/span&gt;&lt;/h5&gt;" style="text;html=1;align=left;verticalAlign=middle;resizable=0;points=[];autosize=1;strokeColor=none;fillColor=none;" vertex="1" parent="1">
          <mxGeometry x="441" y="330" width="70" height="70" as="geometry" />
        </mxCell>
        <mxCell id="UIj2MaULoUiLmwatY3r4-65" value="" style="edgeStyle=orthogonalEdgeStyle;rounded=0;orthogonalLoop=1;jettySize=auto;html=1;" edge="1" parent="1" source="UIj2MaULoUiLmwatY3r4-62" target="UIj2MaULoUiLmwatY3r4-64">
          <mxGeometry relative="1" as="geometry" />
        </mxCell>
        <mxCell id="UIj2MaULoUiLmwatY3r4-62" value="tiene4" style="rhombus;whiteSpace=wrap;html=1;rounded=0;" vertex="1" parent="1">
          <mxGeometry x="135" y="45" width="50" height="50" as="geometry" />
        </mxCell>
        <mxCell id="UIj2MaULoUiLmwatY3r4-66" style="edgeStyle=orthogonalEdgeStyle;rounded=0;orthogonalLoop=1;jettySize=auto;html=1;endArrow=oval;endFill=1;" edge="1" parent="1" source="UIj2MaULoUiLmwatY3r4-64">
          <mxGeometry relative="1" as="geometry">
            <mxPoint x="400" y="70" as="targetPoint" />
          </mxGeometry>
        </mxCell>
        <mxCell id="UIj2MaULoUiLmwatY3r4-64" value="TipoVinculo" style="whiteSpace=wrap;html=1;rounded=0;" vertex="1" parent="1">
          <mxGeometry x="260" y="40" width="120" height="60" as="geometry" />
        </mxCell>
        <mxCell id="UIj2MaULoUiLmwatY3r4-67" value="nombreTipo" style="text;html=1;align=center;verticalAlign=middle;resizable=0;points=[];autosize=1;strokeColor=none;fillColor=none;" vertex="1" parent="1">
          <mxGeometry x="390" y="55" width="90" height="30" as="geometry" />
        </mxCell>
        <mxCell id="UIj2MaULoUiLmwatY3r4-68" value="(1,1)" style="text;html=1;align=center;verticalAlign=middle;resizable=0;points=[];autosize=1;strokeColor=none;fillColor=none;" vertex="1" parent="1">
          <mxGeometry x="155" y="140" width="50" height="30" as="geometry" />
        </mxCell>
        <mxCell id="UIj2MaULoUiLmwatY3r4-69" value="(1,N)" style="text;html=1;align=center;verticalAlign=middle;resizable=0;points=[];autosize=1;strokeColor=none;fillColor=none;" vertex="1" parent="1">
          <mxGeometry x="205" y="78" width="50" height="30" as="geometry" />
        </mxCell>
        <mxCell id="UIj2MaULoUiLmwatY3r4-71" style="edgeStyle=orthogonalEdgeStyle;rounded=0;orthogonalLoop=1;jettySize=auto;html=1;entryX=0.217;entryY=0.9;entryDx=0;entryDy=0;entryPerimeter=0;endArrow=oval;endFill=0;" edge="1" parent="1">
          <mxGeometry relative="1" as="geometry">
            <mxPoint x="220" y="230" as="sourcePoint" />
            <Array as="points">
              <mxPoint x="230" y="230" />
              <mxPoint x="230" y="230" />
            </Array>
            <mxPoint x="240" y="230.00000000000006" as="targetPoint" />
          </mxGeometry>
        </mxCell>
        <mxCell id="UIj2MaULoUiLmwatY3r4-72" value="F/H" style="text;html=1;align=center;verticalAlign=middle;resizable=0;points=[];autosize=1;strokeColor=none;fillColor=none;" vertex="1" parent="1">
          <mxGeometry x="234" y="215" width="40" height="30" as="geometry" />
        </mxCell>
        <mxCell id="UIj2MaULoUiLmwatY3r4-73" value="&lt;h5&gt;&lt;span style=&quot;font-weight: normal;&quot;&gt;descripcion (0,1) o&lt;/span&gt;&lt;/h5&gt;" style="text;html=1;align=center;verticalAlign=middle;resizable=0;points=[];autosize=1;strokeColor=none;fillColor=none;" vertex="1" parent="1">
          <mxGeometry y="180" width="110" height="60" as="geometry" />
        </mxCell>
        <mxCell id="UIj2MaULoUiLmwatY3r4-76" value="F/Hp" style="text;html=1;align=center;verticalAlign=middle;resizable=0;points=[];autosize=1;strokeColor=none;fillColor=none;" vertex="1" parent="1">
          <mxGeometry x="305" y="668" width="50" height="30" as="geometry" />
        </mxCell>
        <mxCell id="UIj2MaULoUiLmwatY3r4-78" value="titulo" style="text;html=1;align=center;verticalAlign=middle;resizable=0;points=[];autosize=1;strokeColor=none;fillColor=none;" vertex="1" parent="1">
          <mxGeometry x="255" y="588" width="50" height="30" as="geometry" />
        </mxCell>
        <mxCell id="UIj2MaULoUiLmwatY3r4-79" style="edgeStyle=orthogonalEdgeStyle;rounded=0;orthogonalLoop=1;jettySize=auto;html=1;endArrow=oval;endFill=0;" edge="1" parent="1">
          <mxGeometry relative="1" as="geometry">
            <mxPoint x="400" y="670" as="targetPoint" />
            <mxPoint x="400" y="655" as="sourcePoint" />
            <Array as="points">
              <mxPoint x="400" y="670" />
            </Array>
          </mxGeometry>
        </mxCell>
        <mxCell id="UIj2MaULoUiLmwatY3r4-80" value="nombreArch" style="text;html=1;align=center;verticalAlign=middle;resizable=0;points=[];autosize=1;strokeColor=none;fillColor=none;" vertex="1" parent="1">
          <mxGeometry x="369" y="665" width="90" height="30" as="geometry" />
        </mxCell>
        <mxCell id="UIj2MaULoUiLmwatY3r4-81" value="" style="shape=waypoint;sketch=0;size=6;pointerEvents=1;points=[];fillColor=none;resizable=0;rotatable=0;perimeter=centerPerimeter;snapToPoint=1;" vertex="1" parent="1">
          <mxGeometry x="90" y="450" width="20" height="20" as="geometry" />
        </mxCell>
        <mxCell id="UIj2MaULoUiLmwatY3r4-82" style="edgeStyle=orthogonalEdgeStyle;rounded=0;orthogonalLoop=1;jettySize=auto;html=1;entryX=0;entryY=0.323;entryDx=0;entryDy=0;entryPerimeter=0;endArrow=none;endFill=0;" edge="1" source="UIj2MaULoUiLmwatY3r4-81" parent="1">
          <mxGeometry relative="1" as="geometry">
            <mxPoint x="120" y="459" as="targetPoint" />
          </mxGeometry>
        </mxCell>
        <mxCell id="UIj2MaULoUiLmwatY3r4-83" value="nombreT" style="text;html=1;align=center;verticalAlign=middle;resizable=0;points=[];autosize=1;strokeColor=none;fillColor=none;" vertex="1" parent="1">
          <mxGeometry x="33" y="443" width="70" height="30" as="geometry" />
        </mxCell>
        <mxCell id="UIj2MaULoUiLmwatY3r4-84" value="descrip o" style="text;html=1;align=center;verticalAlign=middle;resizable=0;points=[];autosize=1;strokeColor=none;fillColor=none;" vertex="1" parent="1">
          <mxGeometry x="50" y="465" width="70" height="30" as="geometry" />
        </mxCell>
        <mxCell id="UIj2MaULoUiLmwatY3r4-85" style="edgeStyle=orthogonalEdgeStyle;rounded=0;orthogonalLoop=1;jettySize=auto;html=1;endArrow=oval;endFill=0;" edge="1" parent="1">
          <mxGeometry relative="1" as="geometry">
            <mxPoint x="403" y="521" as="targetPoint" />
            <mxPoint x="403" y="506" as="sourcePoint" />
            <Array as="points">
              <mxPoint x="403" y="521" />
            </Array>
          </mxGeometry>
        </mxCell>
        <mxCell id="UIj2MaULoUiLmwatY3r4-86" value="f/h&lt;div&gt;dsc&lt;/div&gt;" style="text;html=1;align=center;verticalAlign=middle;resizable=0;points=[];autosize=1;strokeColor=none;fillColor=none;" vertex="1" parent="1">
          <mxGeometry x="386" y="518" width="40" height="40" as="geometry" />
        </mxCell>
        <mxCell id="UIj2MaULoUiLmwatY3r4-87" style="edgeStyle=orthogonalEdgeStyle;rounded=0;orthogonalLoop=1;jettySize=auto;html=1;endArrow=oval;endFill=0;" edge="1" parent="1">
          <mxGeometry relative="1" as="geometry">
            <mxPoint x="474" y="516" as="targetPoint" />
            <mxPoint x="474" y="501" as="sourcePoint" />
            <Array as="points">
              <mxPoint x="474" y="516" />
            </Array>
          </mxGeometry>
        </mxCell>
        <mxCell id="UIj2MaULoUiLmwatY3r4-88" value="f/h&lt;div&gt;share&lt;/div&gt;" style="text;html=1;align=center;verticalAlign=middle;resizable=0;points=[];autosize=1;strokeColor=none;fillColor=none;" vertex="1" parent="1">
          <mxGeometry x="451" y="513" width="50" height="40" as="geometry" />
        </mxCell>
        <mxCell id="UIj2MaULoUiLmwatY3r4-89" value="texto o&lt;div&gt;f/h com&amp;nbsp;&amp;nbsp;&lt;/div&gt;&lt;div&gt;&lt;br&gt;&lt;/div&gt;" style="text;html=1;align=right;verticalAlign=middle;resizable=0;points=[];autosize=1;strokeColor=none;fillColor=none;" vertex="1" parent="1">
          <mxGeometry x="501" y="458" width="70" height="60" as="geometry" />
        </mxCell>
        <mxCell id="UIj2MaULoUiLmwatY3r4-92" style="edgeStyle=orthogonalEdgeStyle;rounded=0;orthogonalLoop=1;jettySize=auto;html=1;endArrow=none;endFill=0;startArrow=oval;startFill=0;" edge="1" parent="1">
          <mxGeometry relative="1" as="geometry">
            <mxPoint x="581" y="488" as="targetPoint" />
            <mxPoint x="570" y="488" as="sourcePoint" />
          </mxGeometry>
        </mxCell>
        <mxCell id="UIj2MaULoUiLmwatY3r4-94" style="edgeStyle=orthogonalEdgeStyle;rounded=0;orthogonalLoop=1;jettySize=auto;html=1;entryX=0;entryY=0.323;entryDx=0;entryDy=0;entryPerimeter=0;endArrow=none;endFill=0;strokeColor=default;startArrow=oval;startFill=0;" edge="1" parent="1">
          <mxGeometry relative="1" as="geometry">
            <mxPoint x="320" y="604" as="targetPoint" />
            <mxPoint x="300" y="605" as="sourcePoint" />
          </mxGeometry>
        </mxCell>
      </root>
    </mxGraphModel>
  </diagram>
</mxfile>
